HIERARCHY
ROOT Hips
{
    OFFSET 0.0 0.0 0.0
    CHANNELS 6 Xposition Yposition Zposition Zrotation Xrotation Yrotation
    JOINT LHipJoint
    {
        OFFSET 0.1 0.0 0.0
        CHANNELS 3 Zrotation Xrotation Yrotation
        JOINT LeftHip
        {
            OFFSET 0.11849307268857956 0.0 0.0
            CHANNELS 3 Zrotation Xrotation Yrotation
            JOINT LeftKnee
            {
                OFFSET 0.0 0.0 -0.4335598349571228
                CHANNELS 3 Zrotation Xrotation Yrotation
                JOINT LeftAnkle
                {
                    OFFSET 0.0 0.0 -0.4412427842617035
                    CHANNELS 3 Zrotation Xrotation Yrotation
                    End Site
                    {
                        OFFSET 0.0 -0.1 0.0
                    }
                }
            }
        }
    }
    JOINT lowerback
    {
        OFFSET 0.0 0.0 0.1
        CHANNELS 3 Zrotation Xrotation Yrotation
        JOINT Chest
        {
            OFFSET 0.0 0.0 0.22831785678863525
            CHANNELS 3 Zrotation Xrotation Yrotation
            JOINT Chest2
            {
                OFFSET 0.0 0.0 0.25189363956451416
                CHANNELS 3 Zrotation Xrotation Yrotation
                JOINT LeftCollar
                {
                    OFFSET 0.1 0.0 0.0
                    CHANNELS 3 Zrotation Xrotation Yrotation
                    JOINT LeftShoulder
                    {
                        OFFSET 0.12929795682430267 0.0 0.0
                        CHANNELS 3 Zrotation Xrotation Yrotation
                        JOINT LeftElbow
                        {
                            OFFSET 0.2524028420448303 0.0 0.0
                            CHANNELS 3 Zrotation Xrotation Yrotation
                            JOINT LeftWrist
                            {
                                OFFSET 0.24324209988117218 0.0 0.0
                                CHANNELS 3 Zrotation Xrotation Yrotation
                                End Site
                                {
                                    OFFSET 0.1 0.0 0.0
                                }
                            }
                        }
                    }
                }
                JOINT Neck
                {
                    OFFSET 0.0 0.0 0.1
                    CHANNELS 3 Zrotation Xrotation Yrotation
                    JOINT Head
                    {
                        OFFSET 0.0 0.0 0.11882233619689941
                        CHANNELS 3 Zrotation Xrotation Yrotation
                        End Site
                        {
                            OFFSET 0.0 0.0 0.1147061139345169
                        }
                    }
                }
                JOINT RightCollar
                {
                    OFFSET -0.1 0.0 0.0
                    CHANNELS 3 Zrotation Xrotation Yrotation
                    JOINT RightShoulder
                    {
                        OFFSET -0.12929795682430267 0.0 0.0
                        CHANNELS 3 Zrotation Xrotation Yrotation
                        JOINT RightElbow
                        {
                            OFFSET -0.2524028420448303 0.0 0.0
                            CHANNELS 3 Zrotation Xrotation Yrotation
                            JOINT RightWrist
                            {
                                OFFSET -0.24324209988117218 0.0 0.0
                                CHANNELS 3 Zrotation Xrotation Yrotation
                                End Site
                                {
                                    OFFSET -0.1 0.0 0.0
                                }
                            }
                        }
                    }
                }
            }
        }
    }
    JOINT RHipJoint
    {
        OFFSET -0.1 0.0 0.0
        CHANNELS 3 Zrotation Xrotation Yrotation
        JOINT RightHip
        {
            OFFSET -0.11849307268857956 0.0 0.0
            CHANNELS 3 Zrotation Xrotation Yrotation
            JOINT RightKnee
            {
                OFFSET 0.0 0.0 -0.4335598349571228
                CHANNELS 3 Zrotation Xrotation Yrotation
                JOINT RightAnkle
                {
                    OFFSET 0.0 0.0 -0.4412427842617035
                    CHANNELS 3 Zrotation Xrotation Yrotation
                    End Site
                    {
                        OFFSET 0.0 -0.1 0.0
                    }
                }
            }
        }
    }
}
MOTION
Frames: 8
Frame Time: 0.03333333333333333
-2.6026423256553244e-06 0.8850318193435669 -3.993458449258469e-06 -92.64538784169741 -42.527491441080926 -95.24806624948658 -3.1805546814635168e-15 6.3611093629270335e-15 -3.1805546814635168e-15 -0.027164010829916006 -0.3424515801420498 -3.7496340444882255 0.24589618591342932 13.324813877573572 -0.5935866919624625 -1.7655625192200634e-31 -6.361109362927035e-15 -3.1805546814635176e-15 -3.1805546814635168e-15 6.3611093629270335e-15 -3.1805546814635168e-15 0.7593898763320491 8.972433982886315 0.5620651200408601 0.28064748157810004 -2.343058382196683e-08 1.2785286179915692e-06 0.0 0.0 0.0 -21.22219332904666 5.748736162334014 75.59681317267524 -28.283977698430967 -5.168123933098847e-06 -2.3434252072917525e-07 0.0 0.0 0.0 0.0 0.0 0.0 -3.1823736365413993 -6.9710928988519925 -5.753087036973125 0.0 0.0 0.0 23.388329465548303 7.493916787372851 -72.77521934279794 36.32449174116658 -5.387843663764604e-06 5.6204451276919065e-08 3.180554681463516e-15 -6.361109362927032e-15 1.7655625192200634e-31 -3.1805546814635168e-15 6.3611093629270335e-15 -3.1805546814635168e-15 -0.20504891502464162 -2.4180142855251847 -0.020597338914596315 1.2248965440622182 14.304129347970933 -0.9412904245813778 0.0 0.0 0.0
-2.7786668397311587e-06 0.885031521320343 -3.95894494431559e-06 -92.86072181076194 -42.25778218335914 -95.31121016437648 -6.3611093629270335e-15 -4.770832022195275e-15 -3.1805546814635168e-15 -0.014830266018846726 -0.19329957662701183 -3.883185716770841 0.2333821209298561 13.365346376354944 -0.49501960913121945 0.0 0.0 3.1805546814635168e-15 -6.3611093629270335e-15 -4.770832022195275e-15 -3.1805546814635168e-15 0.7954297208982702 9.243502723539303 0.44598278571110084 0.2805835117263363 9.541515648307222e-07 1.0793856255796512e-06 6.3611093629270335e-15 0.0 0.0 -20.839603973575425 5.341315110473311 75.5130363146003 -28.24931541811273 3.2379268092912214e-07 -1.9787732262526806e-06 -6.361109362927033e-15 4.9696166897867443e-17 2.758691436281349e-33 6.3611093629270335e-15 0.0 0.0 -2.8295295628397445 -6.92617270546739 -5.733480480059259 6.3611093629270335e-15 0.0 0.0 21.997641965604494 6.883035555146242 -72.88013870755361 36.24932634701456 4.828045946380048e-06 -2.200023862741921e-07 3.531125038440127e-31 -6.3611093629270335e-15 6.3611093629270335e-15 -6.3611093629270335e-15 -4.770832022195275e-15 -3.1805546814635168e-15 -0.20417879644292547 -2.3681767125504747 -0.12017143445794734 1.206420996984131 14.160923398950368 -0.8900940573372702 0.0 0.0 0.0
-3.1026247597765177e-06 0.8850311636924744 -3.995985025539994e-06 -92.8166682879499 -42.17528704262044 -95.15309235048248 -3.1805546814635176e-15 8.827812596100317e-32 -3.1805546814635176e-15 -0.019771163577284163 -0.2444573039629388 -4.038875132373947 0.2370365477381764 13.404951023347769 -0.4947954681010215 3.1805546814635168e-15 4.770832022195275e-15 1.5902773407317582e-15 -3.1805546814635176e-15 8.827812596100317e-32 -3.1805546814635176e-15 0.8252709978927426 9.26908936113013 0.27361310936330907 0.06549281638841847 1.8847914901937564e-06 9.142863893731202e-07 3.1805546814635164e-15 6.361109362927033e-15 -1.7655625192200634e-31 -20.644890274564137 5.275196149744426 75.48486448476521 -28.324088519019906 -1.9091017203558288e-06 4.1820475911271735e-07 0.0 0.0 3.1805546814635168e-15 3.1805546814635164e-15 6.361109362927033e-15 -1.7655625192200634e-31 -2.5198979022137786 -6.904982377523364 -5.556249367752099 3.1805546814635164e-15 6.361109362927033e-15 -1.7655625192200634e-31 22.027184134556546 6.826848744746943 -72.80549276061936 36.527528178127746 9.42872801882241e-08 8.943814920785017e-07 -3.1805546814635176e-15 -3.531125038440127e-31 1.272221872585407e-14 -3.1805546814635176e-15 8.827812596100317e-32 -3.1805546814635176e-15 -0.21857594370504238 -2.45023928341841 -0.2297776714545075 1.2190697498218197 14.136291375963172 -1.0232645961580087 0.0 -6.3611093629270335e-15 0.0
-3.3576043279026635e-06 0.8850310444831848 -4.114222974749282e-06 -92.8118807362602 -42.11625295616682 -95.10678627064432 0.0 -6.3611093629270335e-15 0.0 -0.009088987201260675 -0.12053638348369712 -4.044459529886472 0.2636065555196821 13.219103637457067 -0.46107073874255816 -3.180554681463516e-15 -6.361109362927032e-15 -1.7655625192200634e-31 0.0 -6.3611093629270335e-15 0.0 0.8627387324513031 9.43631740250782 0.12068146025288182 -0.07537213649449759 -3.140601896222186e-06 -1.1098681850706206e-06 -3.531125038440127e-31 -6.3611093629270335e-15 -6.3611093629270335e-15 -20.742425078454303 5.307216675314801 75.32042253554351 -28.630647789871176 -4.8505573379502985e-06 -3.1643569476289626e-06 6.3611093629270335e-15 -1.7655625192200634e-31 -3.1805546814635168e-15 -3.531125038440127e-31 -6.3611093629270335e-15 -6.3611093629270335e-15 -2.2532740993729603 -6.913269581288664 -5.288514533473761 -3.531125038440127e-31 -6.3611093629270335e-15 -6.3611093629270335e-15 22.274867879194165 6.710687139773446 -72.55205889049242 36.80020811876754 7.399831513286463e-08 4.271672487663984e-06 0.0 0.0 0.0 0.0 -6.3611093629270335e-15 0.0 -0.22769051474490526 -2.486887215167526 -0.15910332341276673 1.2630230300447247 14.052624195389322 -1.0852726827473478 0.0 0.0 -3.1805546814635164e-15
-3.4799868444679305e-06 0.8850306868553162 -4.01980105380062e-06 -93.0007995209261 -41.92408919765937 -95.1857995093046 3.1805546814635168e-15 8.827812596100317e-32 3.1805546814635168e-15 0.014146080990669442 0.1346292008221468 -4.164527207019041 0.23720326143847092 13.130845140222448 -0.310102247515967 -6.3611093629270335e-15 0.0 0.0 3.1805546814635168e-15 8.827812596100317e-32 3.1805546814635168e-15 0.8798384298265801 9.593309112481425 0.08207395348162708 -0.04009352666087565 -1.2618682120187387e-06 1.5602904996657794e-06 -3.1805546814635168e-15 1.5902773407317584e-15 4.4139062980501586e-32 -19.964409970221492 5.362733077931002 75.07111211117268 -28.941224805825588 -1.8962348851154284e-07 -8.515556952949518e-07 -6.361109362927032e-15 -3.168130639739049e-15 -1.75866579062936e-31 -3.1805546814635168e-15 1.5902773407317584e-15 4.4139062980501586e-32 -2.1262132107212137 -6.6145083776498765 -5.0941941039613825 -3.1805546814635168e-15 1.5902773407317584e-15 4.4139062980501586e-32 21.317149756768277 6.483357488786341 -72.36411764108512 37.2774059382424 5.112546235887799e-06 2.1286603491519964e-06 0.0 0.0 6.3611093629270335e-15 3.1805546814635168e-15 8.827812596100317e-32 3.1805546814635168e-15 -0.22275227548226112 -2.4243799522146388 -0.29642079162557045 1.2197742159509015 13.919249023032187 -1.0865006982127765 6.3611093629270335e-15 1.7655625192200634e-31 3.1805546814635168e-15
-3.595021553337574e-06 0.8850300908088684 -3.953577106585726e-06 -93.1365323092329 -41.64272217667796 -95.30704426003386 -6.3611093629270335e-15 -7.951386703658792e-15 -3.1805546814635176e-15 0.013390488667533965 0.12789808048183687 -4.182744109639282 0.21093792008953202 13.269347508391204 -0.3041608478873683 -3.1805546814635168e-15 6.3611093629270335e-15 6.3611093629270335e-15 -6.3611093629270335e-15 -7.951386703658792e-15 -3.1805546814635176e-15 0.8844391780996663 9.837679819821508 0.1698539205500959 -0.1106683453609959 -3.206812935585645e-06 -1.2765483139888237e-06 -1.7655625192200634e-31 6.3611093629270335e-15 3.1805546814635168e-15 -19.189589711014005 5.466086708029927 74.79545771417338 -29.229171762176698 2.912252994817512e-06 6.30240950297456e-07 6.3611093629270335e-15 0.0 0.0 -1.7655625192200634e-31 6.3611093629270335e-15 3.1805546814635168e-15 -1.8524852630603448 -6.897584524414636 -5.047607817237025 -1.7655625192200634e-31 6.3611093629270335e-15 3.1805546814635168e-15 19.82447439618363 6.1739852079538995 -72.12231437661123 37.84599371827371 1.9788193322783823e-06 -1.1466465387390674e-06 -6.3611093629270335e-15 -3.531125038440127e-31 6.3611093629270335e-15 -6.3611093629270335e-15 -7.951386703658792e-15 -3.1805546814635176e-15 -0.2210137401253043 -2.4539499594462133 -0.35361738249188207 1.1582553120276358 13.67972300715293 -1.1043806037918629 0.0 0.0 6.3611093629270335e-15
-3.6943029044778086e-06 0.8850300312042236 -3.7749341572634876e-06 -93.24241014851478 -41.71517816933621 -95.41027957855975 3.1805546814635164e-15 6.361109362927033e-15 -1.7655625192200634e-31 0.020790881767747283 0.21494470202773527 -4.031432428245063 0.21659848984383062 13.183142476581969 -0.4349035008556346 -3.1805546814635168e-15 -1.5902773407317584e-15 -4.4139062980501586e-32 3.1805546814635164e-15 6.361109362927033e-15 -1.7655625192200634e-31 0.8678697215128988 9.888975026678104 0.08090023342454701 -0.22738883350844136 -2.0846737146535874e-06 1.728249212380968e-06 0.0 -7.951386703658792e-15 0.0 -20.25495762564558 6.439485152647316 74.14507718361897 -30.432182460917815 -2.2287660349508394e-06 1.9294227954977247e-07 5.517382872562698e-33 1.987846675914698e-16 -3.1805546814635168e-15 0.0 -7.951386703658792e-15 0.0 -1.7270195030291542 -6.871983865405367 -4.851685800615928 0.0 -7.951386703658792e-15 0.0 18.971673954741252 6.341014403309452 -71.84687775497774 38.21140372885345 -1.1749536164659207e-06 1.6983177838637378e-06 6.3611093629270335e-15 0.0 0.0 3.1805546814635164e-15 6.361109362927033e-15 -1.7655625192200634e-31 -0.22078000737184847 -2.509764010426528 -0.2955810789931442 1.1181696717972185 13.395293238497757 -1.1527221640170437 -6.3611093629270335e-15 1.5902773407317584e-15 -3.1805546814635168e-15
-3.636436304077506e-06 0.8850300312042236 -3.6969795473851264e-06 -93.30747254962739 -41.77418037985554 -95.39218806676634 -6.3611093629270335e-15 0.0 0.0 0.02653626500331165 0.2692128901587978 -4.104608941973649 0.24521411402248364 13.178633509111148 -0.5819865802662293 6.361109362927033e-15 1.7655625192200634e-31 3.1805546814635164e-15 -6.3611093629270335e-15 0.0 0.0 0.8918767731603654 9.777558725545294 -0.10425167534256734 -0.5295245571272186 1.5554273544384362e-06 -1.7838059802075632e-06 3.1805546814635168e-15 6.3611093629270335e-15 -1.7655625192200634e-31 -20.39964640603915 6.801001169681468 74.03263000158414 -30.46581904435585 6.195595022197919e-07 -2.8138316369634174e-06 6.3611093629270335e-15 3.1805546814635168e-15 -1.7655625192200634e-31 3.1805546814635168e-15 6.3611093629270335e-15 -1.7655625192200634e-31 -1.6660139733513724 -6.8683777460021895 -4.793064470330304 3.1805546814635168e-15 6.3611093629270335e-15 -1.7655625192200634e-31 19.027734647472233 6.796776536150073 -71.3895567547236 38.73120475623659 6.714948202506881e-07 2.9466159739342465e-06 0.0 0.0 6.3611093629270335e-15 -6.3611093629270335e-15 0.0 0.0 -0.2272101104613137 -2.484161658745858 -0.467968909459051 1.12172436318531 13.371959965394334 -1.1860997458135594 3.1805546814635168e-15 0.0 0.0
